# xmcd
#
# Track frame offsets:
#	150
#	17807
#	31210
#	43673
#	60000
#	75141
#	102011
#	114956
#	136633
#	148581
#	174183
#	189201
#
# Disc length: 2767 seconds
#
# Revision: 1
# Processed by: cddbd v1.5.2PL0 Copyright (c) Steve Scherf et al.
# Submitted via: audiograbber 1.83.01
#
DISCID=7a0acd0c
DTITLE=Papa Mojo - One Foot In The Groove
DYEAR=2006
DGENRE=Blues
TTITLE0=Statesboro' Blues
TTITLE1=Evil
TTITLE2=Can't Be Satisfied
TTITLE3=It Hurts Me Too
TTITLE4=Sittin On Top Of The World
TTITLE5=Goin Down Slow
TTITLE6=Hey Hey
TTITLE7=Back Water Blues
TTITLE8=Mad Man Blues
TTITLE9=Walkin Blues
TTITLE10=Tougher Than Tough
TTITLE11=Diggin' Mt Potatoes
EXTD=
EXTT0=
EXTT1=
EXTT2=
EXTT3=
EXTT4=
EXTT5=
EXTT6=
EXTT7=
EXTT8=
EXTT9=
EXTT10=
EXTT11=
PLAYORDER=
